<?xml version="1.0" encoding="UTF-8"?>
<!DOCTYPE svg
  PUBLIC '-//W3C//DTD SVG 1.1//EN'
  'http://www.w3.org/Graphics/SVG/1.1/DTD/svg11.dtd'>
<svg version="1.1" xmlns="http://www.w3.org/2000/svg" width="128.000mm" height="17.000mm">
    <!--Autogenerated with python-barcode 0.14.0-->
    <g id="barcode_group">
        <rect width="100%" height="100%" style="fill:white"/>
        <rect x="6.000mm" y="1.000mm" width="1.600mm" height="15.000mm" style="fill:black;"/>
        <rect x="8.400mm" y="1.000mm" width="0.800mm" height="15.000mm" style="fill:black;"/>
        <rect x="10.800mm" y="1.000mm" width="0.800mm" height="15.000mm" style="fill:black;"/>
        <rect x="14.800mm" y="1.000mm" width="0.800mm" height="15.000mm" style="fill:black;"/>
        <rect x="17.200mm" y="1.000mm" width="0.800mm" height="15.000mm" style="fill:black;"/>
        <rect x="21.200mm" y="1.000mm" width="1.600mm" height="15.000mm" style="fill:black;"/>
        <rect x="23.600mm" y="1.000mm" width="0.800mm" height="15.000mm" style="fill:black;"/>
        <rect x="26.000mm" y="1.000mm" width="0.800mm" height="15.000mm" style="fill:black;"/>
        <rect x="27.600mm" y="1.000mm" width="1.600mm" height="15.000mm" style="fill:black;"/>
        <rect x="32.400mm" y="1.000mm" width="0.800mm" height="15.000mm" style="fill:black;"/>
        <rect x="34.800mm" y="1.000mm" width="0.800mm" height="15.000mm" style="fill:black;"/>
        <rect x="37.200mm" y="1.000mm" width="3.200mm" height="15.000mm" style="fill:black;"/>
        <rect x="41.200mm" y="1.000mm" width="0.800mm" height="15.000mm" style="fill:black;"/>
        <rect x="42.800mm" y="1.000mm" width="0.800mm" height="15.000mm" style="fill:black;"/>
        <rect x="45.200mm" y="1.000mm" width="1.600mm" height="15.000mm" style="fill:black;"/>
        <rect x="50.000mm" y="1.000mm" width="0.800mm" height="15.000mm" style="fill:black;"/>
        <rect x="53.200mm" y="1.000mm" width="2.400mm" height="15.000mm" style="fill:black;"/>
        <rect x="56.400mm" y="1.000mm" width="1.600mm" height="15.000mm" style="fill:black;"/>
        <rect x="58.800mm" y="1.000mm" width="1.600mm" height="15.000mm" style="fill:black;"/>
        <rect x="61.200mm" y="1.000mm" width="0.800mm" height="15.000mm" style="fill:black;"/>
        <rect x="64.400mm" y="1.000mm" width="2.400mm" height="15.000mm" style="fill:black;"/>
        <rect x="67.600mm" y="1.000mm" width="1.600mm" height="15.000mm" style="fill:black;"/>
        <rect x="70.000mm" y="1.000mm" width="2.400mm" height="15.000mm" style="fill:black;"/>
        <rect x="74.800mm" y="1.000mm" width="0.800mm" height="15.000mm" style="fill:black;"/>
        <rect x="76.400mm" y="1.000mm" width="0.800mm" height="15.000mm" style="fill:black;"/>
        <rect x="78.800mm" y="1.000mm" width="3.200mm" height="15.000mm" style="fill:black;"/>
        <rect x="83.600mm" y="1.000mm" width="0.800mm" height="15.000mm" style="fill:black;"/>
        <rect x="85.200mm" y="1.000mm" width="1.600mm" height="15.000mm" style="fill:black;"/>
        <rect x="88.400mm" y="1.000mm" width="2.400mm" height="15.000mm" style="fill:black;"/>
        <rect x="92.400mm" y="1.000mm" width="0.800mm" height="15.000mm" style="fill:black;"/>
        <rect x="94.000mm" y="1.000mm" width="1.600mm" height="15.000mm" style="fill:black;"/>
        <rect x="98.000mm" y="1.000mm" width="0.800mm" height="15.000mm" style="fill:black;"/>
        <rect x="101.200mm" y="1.000mm" width="0.800mm" height="15.000mm" style="fill:black;"/>
        <rect x="102.800mm" y="1.000mm" width="2.400mm" height="15.000mm" style="fill:black;"/>
        <rect x="107.600mm" y="1.000mm" width="1.600mm" height="15.000mm" style="fill:black;"/>
        <rect x="110.000mm" y="1.000mm" width="0.800mm" height="15.000mm" style="fill:black;"/>
        <rect x="111.600mm" y="1.000mm" width="1.600mm" height="15.000mm" style="fill:black;"/>
        <rect x="115.600mm" y="1.000mm" width="2.400mm" height="15.000mm" style="fill:black;"/>
        <rect x="118.800mm" y="1.000mm" width="0.800mm" height="15.000mm" style="fill:black;"/>
        <rect x="120.400mm" y="1.000mm" width="1.600mm" height="15.000mm" style="fill:black;"/>
    </g>
</svg>
